<?xml version="1.0" encoding="UTF-8" standalone="no"?>
<!-- Created with Inkscape (http://www.inkscape.org/) -->

<svg
   xmlns:dc="http://purl.org/dc/elements/1.1/"
   xmlns:cc="http://creativecommons.org/ns#"
   xmlns:rdf="http://www.w3.org/1999/02/22-rdf-syntax-ns#"
   xmlns:svg="http://www.w3.org/2000/svg"
   xmlns="http://www.w3.org/2000/svg"
   xmlns:sodipodi="http://sodipodi.sourceforge.net/DTD/sodipodi-0.dtd"
   xmlns:inkscape="http://www.inkscape.org/namespaces/inkscape"
   width="403.96381"
   height="403.96381"
   id="svg2"
   version="1.1"
   inkscape:version="0.48.2 r9819"
   sodipodi:docname="smiley_big_mouth.svg"
   inkscape:export-filename="/home/linus/рисунок-20.svg.png"
   inkscape:export-xdpi="90"
   inkscape:export-ydpi="90">
  <defs
     id="defs4">
    <inkscape:perspective
       sodipodi:type="inkscape:persp3d"
       inkscape:vp_x="0 : 526.18109 : 1"
       inkscape:vp_y="0 : 1000 : 0"
       inkscape:vp_z="744.09448 : 526.18109 : 1"
       inkscape:persp3d-origin="372.04724 : 350.78739 : 1"
       id="perspective10" />
    <inkscape:perspective
       id="perspective7175"
       inkscape:persp3d-origin="0.5 : 0.33333333 : 1"
       inkscape:vp_z="1 : 0.5 : 1"
       inkscape:vp_y="0 : 1000 : 0"
       inkscape:vp_x="0 : 0.5 : 1"
       sodipodi:type="inkscape:persp3d" />
    <inkscape:perspective
       id="perspective7188"
       inkscape:persp3d-origin="0.5 : 0.33333333 : 1"
       inkscape:vp_z="1 : 0.5 : 1"
       inkscape:vp_y="0 : 1000 : 0"
       inkscape:vp_x="0 : 0.5 : 1"
       sodipodi:type="inkscape:persp3d" />
    <inkscape:perspective
       id="perspective7198"
       inkscape:persp3d-origin="0.5 : 0.33333333 : 1"
       inkscape:vp_z="1 : 0.5 : 1"
       inkscape:vp_y="0 : 1000 : 0"
       inkscape:vp_x="0 : 0.5 : 1"
       sodipodi:type="inkscape:persp3d" />
    <inkscape:perspective
       id="perspective2859"
       inkscape:persp3d-origin="0.5 : 0.33333333 : 1"
       inkscape:vp_z="1 : 0.5 : 1"
       inkscape:vp_y="0 : 1000 : 0"
       inkscape:vp_x="0 : 0.5 : 1"
       sodipodi:type="inkscape:persp3d" />
    <inkscape:perspective
       id="perspective3725"
       inkscape:persp3d-origin="0.5 : 0.33333333 : 1"
       inkscape:vp_z="1 : 0.5 : 1"
       inkscape:vp_y="0 : 1000 : 0"
       inkscape:vp_x="0 : 0.5 : 1"
       sodipodi:type="inkscape:persp3d" />
    <inkscape:perspective
       id="perspective3785"
       inkscape:persp3d-origin="0.5 : 0.33333333 : 1"
       inkscape:vp_z="1 : 0.5 : 1"
       inkscape:vp_y="0 : 1000 : 0"
       inkscape:vp_x="0 : 0.5 : 1"
       sodipodi:type="inkscape:persp3d" />
    <inkscape:perspective
       id="perspective3876"
       inkscape:persp3d-origin="0.5 : 0.33333333 : 1"
       inkscape:vp_z="1 : 0.5 : 1"
       inkscape:vp_y="0 : 1000 : 0"
       inkscape:vp_x="0 : 0.5 : 1"
       sodipodi:type="inkscape:persp3d" />
    <inkscape:perspective
       id="perspective2921"
       inkscape:persp3d-origin="0.5 : 0.33333333 : 1"
       inkscape:vp_z="1 : 0.5 : 1"
       inkscape:vp_y="0 : 1000 : 0"
       inkscape:vp_x="0 : 0.5 : 1"
       sodipodi:type="inkscape:persp3d" />
    <inkscape:perspective
       id="perspective3029"
       inkscape:persp3d-origin="0.5 : 0.33333333 : 1"
       inkscape:vp_z="1 : 0.5 : 1"
       inkscape:vp_y="0 : 1000 : 0"
       inkscape:vp_x="0 : 0.5 : 1"
       sodipodi:type="inkscape:persp3d" />
  </defs>
  <sodipodi:namedview
     id="base"
     pagecolor="#ffffff"
     bordercolor="#666666"
     borderopacity="1.0"
     inkscape:pageopacity="0.0"
     inkscape:pageshadow="2"
     inkscape:zoom="0.10153155"
     inkscape:cx="-1534.0113"
     inkscape:cy="-617.46938"
     inkscape:document-units="px"
     inkscape:current-layer="layer1"
     showgrid="false"
     inkscape:window-width="781"
     inkscape:window-height="701"
     inkscape:window-x="496"
     inkscape:window-y="-3"
     inkscape:window-maximized="0"
     showguides="true"
     inkscape:guide-bbox="true"
     inkscape:object-paths="false"
     fit-margin-top="0"
     fit-margin-left="0"
     fit-margin-right="0"
     fit-margin-bottom="0" />
  <metadata
     id="metadata7">
    <rdf:RDF>
      <cc:Work
         rdf:about="">
        <dc:format>image/svg+xml</dc:format>
        <dc:type
           rdf:resource="http://purl.org/dc/dcmitype/StillImage" />
        <dc:title></dc:title>
      </cc:Work>
    </rdf:RDF>
  </metadata>
  <g
     inkscape:label="Layer 1"
     inkscape:groupmode="layer"
     id="layer1"
     transform="translate(-345.97054,185.97727)">
    <g
       id="g3842"
       transform="translate(937.61685,-403.83005)">
      <path
         sodipodi:type="arc"
         style="fill:#000000;stroke:none"
         id="path3793"
         sodipodi:cx="391.43411"
         sodipodi:cy="459.90771"
         sodipodi:rx="198.49498"
         sodipodi:ry="191.4239"
         d="m 589.92909,459.90771 c 0,105.72051 -88.86923,191.42391 -198.49498,191.42391 -109.62575,0 -198.49498,-85.7034 -198.49498,-191.42391 0,-105.7205 88.86923,-191.4239 198.49498,-191.4239 109.62575,0 198.49498,85.7034 198.49498,191.4239 z"
         transform="matrix(1.0175668,0,0,1.0551551,-787.97477,-65.43928)" />
      <path
         transform="matrix(0.92962894,0,0,0.96396884,-752.87013,-24.54011)"
         d="m 589.92909,459.90771 c 0,105.72051 -88.86923,191.42391 -198.49498,191.42391 -109.62575,0 -198.49498,-85.7034 -198.49498,-191.42391 0,-105.7205 88.86923,-191.4239 198.49498,-191.4239 109.62575,0 198.49498,85.7034 198.49498,191.4239 z"
         sodipodi:ry="191.4239"
         sodipodi:rx="198.49498"
         sodipodi:cy="459.90771"
         sodipodi:cx="391.43411"
         id="path3795"
         style="fill:#ffde57;fill-opacity:1;stroke:none"
         sodipodi:type="arc" />
      <path
         style="fill:#000000;stroke:none"
         d="m -545.3606,405.74517 c -12.55747,-32.40347 -4.83535,-56.9163 5.43744,-73.42365 1.72893,-2.77821 71.98453,-4.08652 76.52971,-0.47019 15.2455,12.12992 19.35919,38.98296 11.85705,73.89384 l -93.8242,0 z"
         id="path3797"
         sodipodi:nodetypes="csscc"
         inkscape:connector-curvature="0" />
      <path
         style="fill:#000000;stroke:none"
         d="m -380.5425,405.83833 c -36.3772,-127.87009 143.0799,-125.18848 109.0965,0.25253 l -109.0965,-0.25253 z"
         id="path3799"
         sodipodi:nodetypes="ccc"
         inkscape:connector-curvature="0" />
      <path
         sodipodi:nodetypes="cssssssssssssssscc"
         id="path3830"
         d="m -497.59375,337 c -0.5218,1.23368 -0.91278,2.53246 -1.1875,3.875 -0.27472,1.34254 -0.4375,2.73249 -0.4375,4.15625 0,1.42376 0.16278,2.81371 0.4375,4.15625 0.27472,1.34254 0.6657,2.64132 1.1875,3.875 0.5218,1.23368 1.16501,2.40282 1.90625,3.5 0.74124,1.09718 1.59822,2.12947 2.53125,3.0625 0.93303,0.93303 1.93407,1.75876 3.03125,2.5 1.09718,0.74124 2.29757,1.38445 3.53125,1.90625 1.23368,0.5218 2.50121,0.94403 3.84375,1.21875 1.34254,0.27472 2.73249,0.40625 4.15625,0.40625 1.42376,0 2.81371,-0.13153 4.15625,-0.40625 1.34254,-0.27472 2.64132,-0.69695 3.875,-1.21875 1.23368,-0.5218 2.40282,-1.16501 3.5,-1.90625 1.09718,-0.74124 2.12947,-1.56697 3.0625,-2.5 0.93303,-0.93303 1.79001,-1.96532 2.53125,-3.0625 0.40974,-0.60649 0.68667,-1.28741 1.03125,-1.9375 -3.57632,-18.41887 -13.49917,-20.30215 -37.15625,-17.625 z"
         style="fill:#000000;stroke:none"
         inkscape:connector-curvature="0" />
      <path
         sodipodi:nodetypes="ccccsssssssssssssscc"
         id="path3801"
         d="m -533.58255,339.66047 c -7.6113,12.38113 -10.56127,30.77161 -4.3862,55.02703 l 78.09375,0.28125 c 3.03604,-16.11338 2.44687,-29.51294 -0.5625,-40.34375 -0.34458,0.65009 -0.62151,1.33101 -1.03125,1.9375 -0.74124,1.09718 -1.59822,2.12947 -2.53125,3.0625 -0.93303,0.93303 -1.96532,1.75876 -3.0625,2.5 -1.09718,0.74124 -2.26632,1.38445 -3.5,1.90625 -1.23368,0.5218 -2.53246,0.94403 -3.875,1.21875 -1.34254,0.27472 -2.73249,0.40625 -4.15625,0.40625 -1.42376,0 -2.81371,-0.13153 -4.15625,-0.40625 -1.34254,-0.27472 -2.61007,-0.69695 -3.84375,-1.21875 -1.23368,-0.5218 -2.43407,-1.16501 -3.53125,-1.90625 -1.09718,-0.74124 -2.09822,-1.56697 -3.03125,-2.5 -0.93303,-0.93303 -1.79001,-1.96532 -2.53125,-3.0625 -0.74124,-1.09718 -1.38445,-2.26632 -1.90625,-3.5 -0.5218,-1.23368 -0.91278,-2.53246 -1.1875,-3.875 -0.27472,-1.34254 -0.4375,-2.73249 -0.4375,-4.15625 0,-1.42376 0.16278,-2.81371 0.4375,-4.15625 -18.37131,-1.10103 -15.76073,-0.95659 -34.8013,-1.21453 z"
         style="fill:#ffffff;stroke:none"
         inkscape:connector-curvature="0" />
      <path
         id="path3827"
         d="m -304.15625,326.5625 c -0.93342,0.23822 -1.84459,0.47877 -2.71875,0.84375 -1.17471,0.49047 -2.29901,1.08452 -3.34375,1.78125 -1.04474,0.69673 -2.01782,1.49799 -2.90625,2.375 -0.88843,0.87701 -1.70044,1.8437 -2.40625,2.875 -0.70581,1.0313 -1.31564,2.12164 -1.8125,3.28125 -0.49686,1.15961 -0.89466,2.39432 -1.15625,3.65625 -0.26159,1.26193 -0.375,2.56798 -0.375,3.90625 0,1.33827 0.11341,2.64432 0.375,3.90625 0.26159,1.26193 0.65939,2.46539 1.15625,3.625 0.49686,1.15961 1.10669,2.2812 1.8125,3.3125 0.70581,1.0313 1.51782,1.96674 2.40625,2.84375 0.88843,0.87701 1.86151,1.67827 2.90625,2.375 1.04474,0.69673 2.16904,1.29078 3.34375,1.78125 1.17471,0.49047 2.37788,0.89802 3.65625,1.15625 1.27837,0.25823 2.61305,0.375 3.96875,0.375 1.3557,0 2.69038,-0.11677 3.96875,-0.375 1.27837,-0.25823 2.51279,-0.66578 3.6875,-1.15625 1.17471,-0.49047 2.26776,-1.08452 3.3125,-1.78125 1.04474,-0.69673 2.01782,-1.49799 2.90625,-2.375 0.88843,-0.87701 1.70044,-1.81245 2.40625,-2.84375 0.70581,-1.0313 1.31564,-2.15289 1.8125,-3.3125 0.0723,-0.16872 0.0887,-0.36013 0.15625,-0.53125 -4.44879,-12.16266 -12.96194,-20.76676 -23.15625,-25.71875 z"
         style="fill:#000000;stroke:none"
         inkscape:connector-curvature="0" />
      <path
         id="path3805"
         d="m -325.90625,321.46875 c -29.12606,-0.28384 -57.9999,23.9282 -43.3125,73.40625 l 88.09375,0.21875 c 4.89725,-17.32425 4.23586,-31.57372 0.125,-42.8125 -0.0675,0.17112 -0.084,0.36253 -0.15625,0.53125 -0.49686,1.15961 -1.10669,2.2812 -1.8125,3.3125 -0.70581,1.0313 -1.51782,1.96674 -2.40625,2.84375 -0.88843,0.87701 -1.86151,1.67827 -2.90625,2.375 -1.04474,0.69673 -2.13779,1.29078 -3.3125,1.78125 -1.17471,0.49047 -2.40913,0.89802 -3.6875,1.15625 -1.27837,0.25823 -2.61305,0.375 -3.96875,0.375 -1.3557,0 -2.69038,-0.11677 -3.96875,-0.375 -1.27837,-0.25823 -2.48154,-0.66578 -3.65625,-1.15625 -1.17471,-0.49047 -2.29901,-1.08452 -3.34375,-1.78125 -1.04474,-0.69673 -2.01782,-1.49799 -2.90625,-2.375 -0.88843,-0.87701 -1.70044,-1.81245 -2.40625,-2.84375 -0.70581,-1.0313 -1.31564,-2.15289 -1.8125,-3.3125 -0.49686,-1.15961 -0.89466,-2.36307 -1.15625,-3.625 -0.26159,-1.26193 -0.375,-2.56798 -0.375,-3.90625 0,-1.33827 0.11341,-2.64432 0.375,-3.90625 0.26159,-1.26193 0.65939,-2.49664 1.15625,-3.65625 0.49686,-1.15961 1.10669,-2.24995 1.8125,-3.28125 0.70581,-1.0313 1.51782,-1.99799 2.40625,-2.875 0.88843,-0.87701 1.86151,-1.67827 2.90625,-2.375 1.04474,-0.69673 2.16904,-1.29078 3.34375,-1.78125 0.87416,-0.36498 1.78533,-0.60553 2.71875,-0.84375 -6.77804,-3.2925 -14.26988,-5.02086 -21.75,-5.09375 z"
         style="fill:#ffffff;stroke:none"
         inkscape:connector-curvature="0" />
      <path
         id="path3832"
         d="m -555.81204,339.9977 126.05523,0 0.50828,-11.43647 -125.29279,-0.50828 -1.27072,11.94475 z"
         style="fill:#000000;stroke:none"
         inkscape:connector-curvature="0" />
      <path
         sodipodi:nodetypes="ccccc"
         id="path3838"
         d="m -541.45293,440.63855 263.41984,-0.25414 0.19061,11.5 -263.61044,0.0635 -1e-5,-11.3094 z"
         style="fill:#000000;stroke:none"
         inkscape:connector-curvature="0" />
      <path
         sodipodi:nodetypes="ccccc"
         id="path3840"
         d="m -396.46401,320.68278 15.24862,0 c 9.26957,-29.31687 81.01545,-53.40432 109.53589,-0.25414 l 15.50276,0.25414 c -44.0477,-78.08019 -130.55165,-35.98074 -140.28727,0 z"
         style="fill:#000000;stroke:none"
         inkscape:connector-curvature="0" />
    </g>
  </g>
</svg>
